<svg width="21" height="11" viewBox="0 0 21 11" fill="none" xmlns="http://www.w3.org/2000/svg">
<g clip-path="url(#clip0_1_23)">
<mask id="mask0_1_23" style="mask-type:luminance" maskUnits="userSpaceOnUse" x="0" y="0" width="21" height="11">
<path d="M20.4631 0H0.536901V10.3875H20.4631V0Z" fill="white"/>
</mask>
<g mask="url(#mask0_1_23)">
<path d="M10.5 8.55104C3.33038 8.55104 1.41404 5.24358 1.57802 3.98483C1.7115 2.95125 3.17593 1.29752 10.5 1.29752C17.8241 1.29752 19.2885 2.95863 19.422 3.98483C19.586 5.24358 17.6696 8.55104 10.5 8.55104Z" fill="white"/>
<path d="M10.5 0C8.71712 0 0.536901 0.629378 0.536901 4.00144C0.536901 7.01913 4.06451 10.3875 10.5 10.3875C16.9355 10.3875 20.4631 7.01913 20.4631 4.00144C20.4631 0.655218 12.2829 0 10.5 0ZM10.5 8.55104C3.33038 8.55104 1.41404 5.24359 1.57802 3.98482C1.7115 2.95125 3.17593 1.29752 10.5 1.29752C17.8241 1.29752 19.2885 2.95863 19.422 3.98482C19.586 5.24359 17.6696 8.55104 10.5 8.55104Z" fill="#DF002B"/>
<path fill-rule="evenodd" clip-rule="evenodd" d="M16.5503 3.79841C16.4874 3.79841 16.0469 3.83902 15.9344 4.16755V3.89993C15.9344 3.89338 15.9331 3.88691 15.9305 3.88085C15.9279 3.87481 15.9241 3.86932 15.9193 3.86469C15.9145 3.86006 15.9089 3.85639 15.9027 3.85389C15.8964 3.85138 15.8897 3.85009 15.883 3.85009H15.4806C15.4668 3.85009 15.4534 3.85527 15.4435 3.86458C15.4336 3.87387 15.4277 3.88655 15.4272 3.89993V5.96155C15.4277 5.97511 15.4334 5.988 15.4434 5.99759C15.4533 6.00718 15.4666 6.01277 15.4806 6.01323H15.9421C15.9561 6.01277 15.9694 6.00718 15.9793 5.99759C15.9892 5.988 15.995 5.97511 15.9954 5.96155V4.80062C15.9954 4.67511 16.0431 4.32444 16.6018 4.32444C16.6323 4.32444 16.6628 4.32444 16.6628 4.24691V3.85563C16.6686 3.79288 16.617 3.79841 16.5503 3.79841Z" fill="#36318A"/>
<path fill-rule="evenodd" clip-rule="evenodd" d="M4.00349 3.08967H3.0272C3.01354 3.08967 3.00045 3.09492 2.9908 3.10427C2.98114 3.11362 2.97572 3.12629 2.97572 3.13951V5.97263C2.9757 5.98602 2.98107 5.99889 2.99067 6.00853C3.00028 6.01818 3.01337 6.02383 3.0272 6.02431H4.00349C4.47257 6.02431 5.02173 5.88957 5.02173 4.54776C5.02173 3.20595 4.47257 3.08967 4.00349 3.08967ZM3.80137 5.54074H3.63356C3.628 5.54074 3.62267 5.5386 3.61874 5.53479C3.6148 5.53099 3.61259 5.52582 3.61259 5.52044V3.59539C3.61259 3.59001 3.6148 3.58484 3.61874 3.58103C3.62267 3.57722 3.628 3.57509 3.63356 3.57509H3.80137C4.19989 3.57509 4.38676 3.64522 4.38676 4.55699C4.38676 5.46875 4.19989 5.54074 3.80137 5.54074Z" fill="#36318A"/>
<path fill-rule="evenodd" clip-rule="evenodd" d="M6.39082 3.79841C6.3298 3.79841 5.88742 3.83902 5.77492 4.16755V3.89993C5.77492 3.88671 5.76949 3.87404 5.75984 3.86469C5.75018 3.85535 5.73708 3.85009 5.72343 3.85009H5.32109C5.31393 3.8496 5.30673 3.8505 5.29993 3.85275C5.29314 3.85501 5.28688 3.85857 5.28154 3.86322C5.27619 3.86788 5.27187 3.87353 5.26885 3.87984C5.26582 3.88614 5.26413 3.89297 5.26389 3.89993V5.96155C5.26437 5.97511 5.27014 5.988 5.28005 5.99759C5.28996 6.00718 5.30327 6.01277 5.31728 6.01323H5.78635C5.80018 6.01275 5.81328 6.0071 5.82289 5.99746C5.83249 5.98782 5.83785 5.97494 5.83784 5.96155V4.80062C5.83784 4.67511 5.88742 4.32444 6.44612 4.32444C6.47472 4.32444 6.50714 4.32444 6.50714 4.24691V3.85563C6.51094 3.79288 6.45756 3.79841 6.39082 3.79841Z" fill="#36318A"/>
<path d="M6.14865 5.53705H6.57387C6.58803 5.53705 6.60161 5.54249 6.61162 5.55218C6.62164 5.56188 6.62726 5.57502 6.62726 5.58873V5.95786C6.62726 5.97157 6.62164 5.98472 6.61162 5.99441C6.60161 6.0041 6.58803 6.00955 6.57387 6.00955H6.14865C6.135 6.00955 6.1219 6.0043 6.11224 5.99495C6.10259 5.9856 6.09717 5.97293 6.09717 5.95971V5.59057C6.09691 5.58378 6.09804 5.57701 6.10049 5.57065C6.10294 5.56429 6.10666 5.55845 6.11145 5.55348C6.11623 5.54851 6.12197 5.5445 6.12835 5.54168C6.13475 5.53886 6.14164 5.53728 6.14865 5.53705Z" fill="#36318A"/>
<path d="M11.2055 5.94494C11.1759 5.80278 11.1612 5.65808 11.1617 5.51305V4.80431C11.1617 4.30228 11.196 3.76704 10.3303 3.76704C9.62288 3.76704 9.51609 4.19893 9.50081 4.38903C9.50081 4.42964 9.50081 4.49055 9.50081 4.50162C9.50081 4.5127 9.50081 4.54223 9.54849 4.54223H9.96797C10.0061 4.54223 10.029 4.54222 10.029 4.49239C10.0271 4.46227 10.0271 4.43207 10.029 4.40195C10.0313 4.36667 10.0411 4.33223 10.0578 4.30078C10.0744 4.26934 10.0976 4.24156 10.1259 4.21921C10.1542 4.19685 10.1869 4.18039 10.2221 4.17087C10.2573 4.16134 10.2941 4.15896 10.3303 4.16386C10.3636 4.15948 10.3976 4.16226 10.4296 4.17201C10.4617 4.18175 10.4911 4.19823 10.5159 4.22026C10.5407 4.24229 10.5601 4.26933 10.5728 4.29945C10.5856 4.32958 10.5913 4.36206 10.5896 4.39457V4.45363C10.5896 4.56253 10.439 4.6382 9.93941 4.79509C9.76443 4.83038 9.61033 4.92982 9.50937 5.07259C9.40849 5.21536 9.36849 5.39039 9.39786 5.56104C9.40148 5.63528 9.42044 5.70806 9.45373 5.77504C9.48694 5.84203 9.5338 5.90184 9.59144 5.95093C9.64908 6.00001 9.71638 6.03737 9.7893 6.06075C9.86214 6.08414 9.93911 6.09308 10.0156 6.08706C10.1323 6.09951 10.2502 6.07851 10.3546 6.02666C10.459 5.97481 10.5454 5.89441 10.603 5.79544C10.6068 5.8488 10.6144 5.90184 10.6258 5.95417C10.6411 6.0077 10.6506 6.01877 10.7059 6.01877H11.1521C11.1998 6.01877 11.2151 6.00032 11.2055 5.94494ZM10.2521 5.70316C10.2145 5.70865 10.1762 5.7058 10.14 5.6948C10.1038 5.6838 10.0706 5.66495 10.043 5.63968C10.0154 5.61441 9.99417 5.58339 9.98089 5.54898C9.96753 5.51456 9.96251 5.47766 9.96613 5.44107C9.96103 5.35425 9.98915 5.26867 10.045 5.20061C10.101 5.13254 10.1807 5.08674 10.2693 5.07193C10.3788 5.04287 10.4839 5.00005 10.582 4.94459V5.32479C10.5782 5.45584 10.5058 5.69578 10.2597 5.70316H10.2521Z" fill="#36318A"/>
<path d="M14.2412 3.7615C13.6234 3.7615 13.2782 4.28383 13.2782 4.92797C13.2782 5.57211 13.6138 6.09259 14.2412 6.09259C14.8685 6.09259 15.103 5.80651 15.1793 5.37647C15.1945 5.29711 15.1526 5.28972 15.0993 5.28972H14.7083C14.6902 5.2876 14.6719 5.29237 14.6573 5.30305C14.6427 5.31372 14.633 5.32946 14.6302 5.34694C14.5996 5.56289 14.5157 5.69578 14.2755 5.68286C14.0352 5.66994 13.9055 5.40785 13.9075 5.08117H15.1373C15.185 5.08117 15.206 5.06271 15.2098 5.00549C15.2098 4.97965 15.2098 4.95381 15.2098 4.92797C15.206 4.28383 14.9295 3.7615 14.2412 3.7615ZM14.2412 4.17125C14.5081 4.14356 14.6015 4.35581 14.6225 4.65481H13.9037C13.9113 4.37796 14.0352 4.19339 14.2412 4.17125Z" fill="#36318A"/>
<path d="M13.3755 5.97447L12.5861 4.66773L13.2954 3.88516C13.3145 3.86486 13.3069 3.84825 13.2782 3.84825H12.7062C12.6734 3.84986 12.6427 3.86377 12.6204 3.88701L12.0235 4.60497V3.29824C12.0235 3.28502 12.0182 3.27235 12.0085 3.263C11.9988 3.25365 11.9857 3.2484 11.972 3.2484H11.503C11.4893 3.2484 11.4762 3.25365 11.4666 3.263C11.4569 3.27235 11.4515 3.28502 11.4515 3.29824V5.96709C11.4515 5.98048 11.4568 5.99335 11.4665 6.00299C11.4761 6.01264 11.4892 6.01829 11.503 6.01877H11.972C11.9859 6.01829 11.999 6.01264 12.0086 6.00299C12.0182 5.99335 12.0235 5.98048 12.0235 5.96709V5.27681L12.2047 5.07747L12.731 5.97447C12.7401 5.98718 12.752 5.99776 12.7658 6.00542C12.7797 6.01309 12.7951 6.01765 12.8111 6.01877H13.343C13.3793 6.01877 13.3907 5.99847 13.3755 5.97447Z" fill="#36318A"/>
<path fill-rule="evenodd" clip-rule="evenodd" d="M16.7601 5.35986C16.7601 5.35986 16.6723 6.07414 17.601 6.07414C18.2379 6.07414 18.3809 5.70501 18.3809 5.42815C18.3809 5.1513 18.3122 4.94459 17.6944 4.68988C17.4141 4.57729 17.3131 4.53853 17.3131 4.3392C17.3147 4.30771 17.3238 4.277 17.3396 4.24947C17.3555 4.22194 17.3777 4.19833 17.4046 4.18047C17.4476 4.1527 17.4979 4.13752 17.5497 4.13675C17.6014 4.13599 17.6522 4.14967 17.6961 4.17616C17.7399 4.20265 17.775 4.24083 17.797 4.28612C17.819 4.3314 17.8271 4.38187 17.8202 4.43148C17.8202 4.44994 17.805 4.51085 17.8698 4.51085H18.2683C18.3046 4.51085 18.3275 4.51085 18.3275 4.4241C18.3275 4.33736 18.3275 3.76519 17.5647 3.76519C16.8401 3.76519 16.7334 4.19893 16.7715 4.44809C16.802 4.64743 16.8706 4.87998 17.3321 5.07378C17.7497 5.24728 17.8527 5.31003 17.8298 5.49459C17.8069 5.67917 17.6887 5.71423 17.5094 5.69209C17.4306 5.67683 17.3608 5.63295 17.3144 5.56945C17.2679 5.50595 17.2483 5.42766 17.2596 5.35063C17.2596 5.31003 17.2749 5.27496 17.2063 5.27496H16.8039C16.7715 5.28419 16.762 5.30265 16.7601 5.35986Z" fill="#36318A"/>
<path fill-rule="evenodd" clip-rule="evenodd" d="M8.63897 4.45363C8.88871 4.39088 9.10996 4.22846 9.10996 3.80949C9.10996 3.09521 8.34723 3.08967 8.17181 3.08967H7.36139C7.34621 3.08967 7.33167 3.09551 7.32094 3.10589C7.31021 3.11627 7.30418 3.13036 7.30418 3.14505V5.97078C7.30418 5.98547 7.31021 5.99955 7.32094 6.00994C7.33167 6.02032 7.34621 6.02615 7.36139 6.02615H8.26332C8.56074 6.02615 9.28915 5.99847 9.28915 5.2159C9.29838 5.12449 9.28886 5.03222 9.26111 4.94439C9.23336 4.85655 9.18804 4.77489 9.1276 4.70406C9.06716 4.63325 8.99292 4.57467 8.90908 4.53169C8.82524 4.48872 8.73343 4.46219 8.63897 4.45363ZM7.92007 3.56771C7.92007 3.55694 7.9245 3.54661 7.9324 3.53899C7.94022 3.53138 7.95092 3.5271 7.96207 3.5271H8.0631C8.16731 3.5271 8.26716 3.56716 8.34081 3.63846C8.41454 3.70977 8.45587 3.80647 8.45587 3.90731C8.45587 4.00815 8.41454 4.10486 8.34081 4.17616C8.26716 4.24746 8.16731 4.28752 8.0631 4.28752H7.96207C7.95092 4.28752 7.94022 4.28324 7.9324 4.27563C7.9245 4.26802 7.92007 4.25769 7.92007 4.24691V3.56771ZM8.14893 5.57396H7.95823C7.94709 5.57396 7.93646 5.56968 7.92856 5.56207C7.92066 5.55445 7.91624 5.54412 7.91624 5.53336V4.73971C7.91601 4.73422 7.9169 4.72875 7.91889 4.72361C7.92089 4.71847 7.92391 4.71377 7.9279 4.7098C7.93181 4.70583 7.93646 4.70268 7.9417 4.70052C7.94694 4.69837 7.95255 4.69725 7.95823 4.69726H8.14893C8.21107 4.69336 8.27343 4.70185 8.3321 4.72221C8.39078 4.74257 8.44458 4.77436 8.49004 4.81562C8.5355 4.85687 8.57173 4.90672 8.59653 4.96208C8.62133 5.01744 8.6341 5.07713 8.6341 5.13746C8.6341 5.19779 8.62133 5.25747 8.59653 5.31283C8.57173 5.36819 8.5355 5.41804 8.49004 5.4593C8.44458 5.50056 8.39078 5.53234 8.3321 5.5527C8.27343 5.57306 8.21107 5.58155 8.14893 5.57765V5.57396Z" fill="#36318A"/>
</g>
</g>
<defs>
<clipPath id="clip0_1_23">
<rect width="20" height="10.4" fill="white" transform="translate(0.5)"/>
</clipPath>
</defs>
</svg>
