<svg width="50" height="50" viewBox="0 0 50 50" fill="none" xmlns="http://www.w3.org/2000/svg">
<rect width="50" height="50" rx="20" fill="#34AADF"/>
<path d="M13.9101 24.1143C13.9101 24.1143 24.0824 19.8299 27.6104 18.3213C28.9628 17.7179 33.5492 15.7868 33.5492 15.7868C33.5492 15.7868 35.666 14.942 35.4896 16.9937C35.4307 17.8386 34.9603 20.7954 34.49 23.9937C33.7843 28.5195 33.02 33.4677 33.02 33.4677C33.02 33.4677 32.9024 34.8557 31.9028 35.0971C30.9032 35.3384 29.2568 34.2523 28.9628 34.0109C28.7275 33.8299 24.5528 31.1143 23.024 29.7867C22.6124 29.4247 22.142 28.7006 23.0828 27.8557C25.1996 25.8644 27.728 23.3903 29.2568 21.8213C29.9624 21.0971 30.6679 19.4075 27.728 21.4592C23.5532 24.4161 19.4373 27.1919 19.4373 27.1919C19.4373 27.1919 18.4964 27.7954 16.7325 27.2522C14.9684 26.7092 12.9104 25.985 12.9104 25.985C12.9104 25.985 11.4993 25.0799 13.9101 24.1143Z" fill="white"/>
</svg>
