<svg width="50" height="50" viewBox="0 0 50 50" fill="none" xmlns="http://www.w3.org/2000/svg">
<rect width="50" height="50" rx="20" fill="#754A91"/>
<path d="M19.1652 35.2211C19.1652 34.802 19.1652 34.3829 19.1652 33.9638C19.1682 33.9466 19.1676 33.9291 19.1634 33.9122C19.1593 33.8953 19.1517 33.8794 19.1411 33.8656C19.1305 33.8517 19.1172 33.8401 19.1019 33.8316C19.0866 33.823 19.0697 33.8177 19.0523 33.8159C18.0039 33.5207 17.0362 32.995 16.2214 32.2778C15.6277 31.7427 15.1334 31.1085 14.761 30.4041C14.236 29.3866 13.8867 28.2891 13.7274 27.1573C13.53 25.7376 13.4615 24.3032 13.5226 22.8713C13.536 22.2037 13.5704 21.5438 13.647 20.8762C13.7691 19.6077 14.0921 18.3661 14.604 17.1971C15.2362 15.7597 16.383 14.6052 17.8234 13.956C18.8047 13.5111 19.8369 13.1863 20.8974 12.9888C21.9374 12.7936 22.9904 12.6738 24.0479 12.6304C25.0012 12.597 25.9556 12.6109 26.9075 12.6721C28.2699 12.7291 29.62 12.9526 30.927 13.3377C31.8961 13.6145 32.818 14.0332 33.6622 14.5799C34.4847 15.1394 35.15 15.8971 35.5954 16.7817C36.1189 17.8149 36.4749 18.9234 36.65 20.0664C36.7638 20.745 36.8385 21.4295 36.8739 22.1165C36.9237 22.968 36.918 23.8233 36.8854 24.6711C36.8529 25.5188 36.7802 26.3419 36.6749 27.1725C36.5418 28.4192 36.155 29.6263 35.5379 30.7208C34.7347 32.1054 33.448 33.1509 31.9204 33.6603C30.8759 34.0228 29.7973 34.2807 28.701 34.4303C27.899 34.5403 27.0951 34.62 26.2874 34.6522C25.6691 34.6806 25.0509 34.6731 24.4326 34.6636C24.0824 34.6636 23.734 34.6294 23.3857 34.5991C23.3515 34.5927 23.3161 34.5965 23.2841 34.61C23.2521 34.6235 23.2248 34.6461 23.2057 34.675C22.5014 35.5132 21.7702 36.3287 21.0333 37.1404C20.8991 37.2885 20.7437 37.4162 20.572 37.5197C20.4593 37.5929 20.3309 37.6389 20.197 37.6538C20.0631 37.6688 19.9275 37.6524 19.8012 37.6059C19.6749 37.5593 19.5614 37.484 19.4698 37.3861C19.3783 37.2881 19.3113 37.1701 19.2743 37.0418C19.2014 36.8136 19.1652 36.5755 19.1671 36.3363C19.1652 35.9608 19.1652 35.591 19.1652 35.2211ZM20.0169 36.8123L20.1069 36.7288L21.7051 34.9708C22.3202 34.2944 22.9346 33.6174 23.5484 32.9397C23.5785 32.8983 23.6192 32.8657 23.6663 32.845C23.7134 32.8244 23.7652 32.8165 23.8163 32.8221C24.025 32.843 24.2336 32.8505 24.4441 32.8524C25.1715 32.8524 25.8988 32.8524 26.6261 32.8012C27.2865 32.75 27.9449 32.6704 28.5995 32.568C29.3043 32.4464 30.002 32.2875 30.6897 32.092C32.2209 31.6842 33.4057 30.8118 34.1503 29.399C34.5898 28.5303 34.8655 27.5894 34.9637 26.6225C35.0801 25.7112 35.1497 24.7947 35.1724 23.8764C35.2063 22.7229 35.1268 21.5688 34.935 20.4305C34.802 19.6059 34.5627 18.8015 34.223 18.0372C33.7904 17.089 33.1779 16.3038 32.2343 15.7994C30.7873 15.0256 29.2216 14.6804 27.608 14.5041C27.1506 14.4548 26.6931 14.4282 26.2338 14.4111C25.2932 14.3631 24.3506 14.3682 23.4105 14.4263C22.7345 14.476 22.0621 14.566 21.397 14.6956C20.4188 14.8723 19.4725 15.1918 18.5891 15.6438C18.0769 15.9003 17.6122 16.2408 17.2148 16.6509C16.5706 17.3642 16.0981 18.213 15.8328 19.1334C15.5181 20.2053 15.3463 21.3134 15.3218 22.4294C15.2602 23.5455 15.2743 24.6644 15.3639 25.7786C15.4197 26.4417 15.5317 27.0989 15.6989 27.7433C15.9475 28.7476 16.43 29.6802 17.1076 30.4667C17.8391 31.269 18.7846 31.8502 19.8351 32.1432C19.9672 32.183 20.0265 32.2285 20.0265 32.3764C20.015 32.9226 20.0265 33.4688 20.0265 34.015L20.0169 36.8123Z" fill="white"/>
<path d="M18.6775 19.8732C18.6641 19.4579 18.8919 19.1563 19.1675 18.8851C19.531 18.5401 19.9315 18.2355 20.3619 17.9767C20.5581 17.8568 20.7914 17.8111 21.019 17.848C21.2465 17.885 21.4529 18.0021 21.6003 18.1777C22.1209 18.72 22.587 19.3114 22.9918 19.9434C23.1922 20.2276 23.3436 20.543 23.4397 20.8764C23.4781 21.0066 23.4806 21.1445 23.4469 21.2759C23.4132 21.4073 23.3446 21.5274 23.2483 21.6236C23.0274 21.8384 22.7921 22.038 22.5439 22.221C22.4188 22.3198 22.3258 22.4528 22.2765 22.6035C22.2271 22.7543 22.2236 22.916 22.2663 23.0687C22.4196 23.7858 22.767 24.4479 23.2712 24.9842C23.8839 25.7253 24.6733 26.3034 25.5681 26.6664C25.7879 26.7784 26.0399 26.8125 26.282 26.7631C26.4146 26.7272 26.5325 26.6509 26.6189 26.545C26.7529 26.3762 26.8983 26.2131 27.0189 26.0329C27.1753 25.8082 27.4141 25.6529 27.6844 25.6001C27.9547 25.5473 28.2352 25.6012 28.4659 25.7504C29.1148 26.1233 29.7273 26.5551 30.2958 27.04C30.4298 27.1537 30.5695 27.2637 30.7035 27.3794C30.862 27.4992 30.9765 27.6672 31.0294 27.8577C31.0823 28.0482 31.0707 28.2506 30.9963 28.4339C30.8781 28.7421 30.7057 29.0272 30.4872 29.2759C30.2156 29.6498 29.8698 29.9648 29.4708 30.2014C29.2801 30.3123 29.0658 30.3775 28.8451 30.3917C28.6244 30.4058 28.4035 30.3686 28.1999 30.2829C26.6513 29.6652 25.2043 28.8221 23.9067 27.7815C22.6375 26.7462 21.5283 25.5322 20.6145 24.1782C19.8456 23.0573 19.2339 21.8381 18.7962 20.554C18.7496 20.3987 18.7112 20.2411 18.6813 20.0818C18.6728 20.0126 18.6715 19.9427 18.6775 19.8732Z" fill="white"/>
<path d="M25.286 17.8553C26.5817 17.8791 27.8278 18.3526 28.8072 19.1934C29.7866 20.0342 30.4371 21.1889 30.6453 22.4562C30.7292 22.9169 30.774 23.3838 30.7793 23.852C30.7793 23.962 30.7506 24.0416 30.632 24.053C30.5133 24.0644 30.4827 23.9639 30.4827 23.8634C30.5004 22.9164 30.3042 21.9775 29.9084 21.1154C29.5751 20.407 29.0814 19.7843 28.4655 19.2959C27.8497 18.8074 27.1285 18.4663 26.3579 18.2991C25.9505 18.2057 25.5338 18.1573 25.1157 18.155C25.0749 18.1557 25.0343 18.1506 24.9951 18.1398C24.9617 18.1305 24.9332 18.1087 24.9157 18.0789C24.8982 18.0492 24.893 18.0139 24.9013 17.9805C24.9015 17.9647 24.905 17.949 24.9114 17.9345C24.9178 17.92 24.9271 17.9068 24.9386 17.8959C24.9502 17.8849 24.9639 17.8764 24.9788 17.8707C24.9938 17.8651 25.0097 17.8624 25.0257 17.8629C25.1118 17.8516 25.1999 17.8553 25.286 17.8553Z" fill="white"/>
<path d="M28.9806 22.9985C28.9741 22.4716 28.8432 21.9536 28.5982 21.4859C28.3532 21.0183 28.0011 20.614 27.5699 20.3055C27.0667 19.9553 26.4818 19.738 25.8702 19.674C25.7669 19.6607 25.6635 19.655 25.5583 19.6437C25.453 19.6323 25.3898 19.5887 25.3994 19.4825C25.409 19.3762 25.476 19.3383 25.5908 19.3459C27.2866 19.4483 28.7298 20.3984 29.1739 22.1679C29.2551 22.509 29.2956 22.8585 29.2945 23.209C29.2945 23.2413 29.2945 23.2735 29.2945 23.3038C29.2945 23.3987 29.2332 23.4613 29.1394 23.4594C29.1186 23.4587 29.0982 23.4538 29.0794 23.445C29.0605 23.4362 29.0437 23.4237 29.0299 23.4083C29.0161 23.3928 29.0057 23.3748 28.9991 23.3552C28.9926 23.3356 28.9902 23.3149 28.9921 23.2944C28.9767 23.2052 28.9806 23.1142 28.9806 22.9985Z" fill="white"/>
<path d="M26.0097 20.8857C26.9399 20.9483 27.5888 21.3996 27.7668 22.3801C27.7884 22.5057 27.8037 22.6323 27.8127 22.7594C27.8127 22.8618 27.7897 22.949 27.6768 22.949C27.5639 22.949 27.5256 22.8732 27.5218 22.7594C27.5207 22.3835 27.4038 22.017 27.1868 21.7087C26.9587 21.4296 26.6313 21.2477 26.2719 21.2005C26.1916 21.1856 26.1104 21.1755 26.0288 21.1701C25.8948 21.1701 25.8202 21.1038 25.8374 21.0014C25.8546 20.899 25.935 20.88 26.0097 20.8857Z" fill="white"/>
</svg>
