<svg width="50" height="50" viewBox="0 0 50 50" fill="none" xmlns="http://www.w3.org/2000/svg">
<rect width="50" height="50" rx="20" fill="#2787F5"/>
<path fill-rule="evenodd" clip-rule="evenodd" d="M39.5887 17.8007C39.8 17.1397 39.5887 16.6541 38.583 16.6541H35.2576C34.4121 16.6541 34.0223 17.0736 33.8109 17.5363C33.8109 17.5363 32.1198 21.4029 29.7242 23.9146C28.9491 24.6416 28.5968 24.873 28.174 24.873C27.9627 24.873 27.6567 24.6416 27.6567 23.9807V17.8007C27.6567 17.0075 27.4113 16.6541 26.7066 16.6541H21.481C20.9526 16.6541 20.6349 17.0222 20.6349 17.3711C20.6349 18.123 21.8326 18.2964 21.9561 20.4115V25.0052C21.9561 26.0124 21.7622 26.195 21.3394 26.195C20.2121 26.195 17.4699 22.311 15.8435 17.8668C15.5247 17.003 15.2051 16.6541 14.3552 16.6541H11.0298C10.0797 16.6541 9.88965 17.0736 9.88965 17.5363C9.88965 18.3625 11.017 22.4605 15.1389 27.8804C17.8868 31.5817 21.7584 33.5881 25.2815 33.5881C27.3952 33.5881 27.6567 33.1425 27.6567 32.3749V29.5774C27.6567 28.6862 27.857 28.5083 28.5264 28.5083C29.0196 28.5083 29.8651 28.7396 31.838 30.5242C34.0927 32.6393 34.4644 33.5881 35.7327 33.5881H39.0581C40.0082 33.5881 40.4832 33.1425 40.2092 32.2631C39.9093 31.3866 38.8328 30.1149 37.4044 28.6074C36.6293 27.7482 35.4667 26.8229 35.1144 26.3601C34.6212 25.7653 34.7621 25.5009 35.1144 24.9721C35.1144 24.9721 39.1659 19.6183 39.5887 17.8007Z" fill="white"/>
</svg>
