<svg width="50" height="50" viewBox="0 0 50 50" fill="none" xmlns="http://www.w3.org/2000/svg">
<rect width="50" height="50" rx="20" fill="#00D95F"/>
<path d="M12.5 36.5743L14.2937 29.905C12.8471 27.3069 12.3875 24.2752 12.9993 21.3661C13.611 18.4571 15.253 15.8658 17.624 14.0679C19.9949 12.2699 22.9359 11.3859 25.907 11.578C28.8782 11.77 31.6804 13.0253 33.7993 15.1136C35.9182 17.2018 37.2117 19.9828 37.4426 22.9463C37.6734 25.9098 36.826 28.8571 35.0559 31.2472C33.2858 33.6373 30.7117 35.31 27.806 35.9583C24.9003 36.6066 21.8578 36.187 19.2369 34.7766L12.5 36.5743ZM19.5618 32.2808L19.9784 32.5276C21.8768 33.6509 24.094 34.1158 26.2846 33.8497C28.4753 33.5837 30.5162 32.6016 32.0894 31.0566C33.6626 29.5117 34.6797 27.4905 34.9821 25.3082C35.2846 23.1259 34.8555 20.905 33.7616 18.9916C32.6678 17.0782 30.9707 15.5797 28.9347 14.7298C26.8988 13.8798 24.6384 13.7261 22.5059 14.2926C20.3733 14.8591 18.4883 16.1139 17.1447 17.8616C15.8011 19.6093 15.0743 21.7516 15.0776 23.9547C15.0758 25.7814 15.5818 27.5728 16.5393 29.1295L16.8006 29.5595L15.7979 33.282L19.5618 32.2808Z" fill="white"/>
<path fill-rule="evenodd" clip-rule="evenodd" d="M29.6745 25.6672C29.4302 25.4705 29.1442 25.3321 28.8383 25.2625C28.5324 25.1928 28.2145 25.1938 27.909 25.2654C27.45 25.4557 27.1534 26.1748 26.8568 26.5344C26.7943 26.6206 26.7024 26.681 26.5984 26.7044C26.4944 26.7277 26.3854 26.7124 26.2919 26.6613C24.6114 26.0042 23.2028 24.7992 22.2949 23.242C22.2175 23.1448 22.1808 23.0214 22.1927 22.8978C22.2045 22.7742 22.264 22.66 22.3585 22.5793C22.6893 22.2523 22.9322 21.8474 23.0647 21.4019C23.0941 20.9105 22.9813 20.4211 22.7398 19.9919C22.5531 19.3902 22.1978 18.8545 21.7159 18.4479C21.4673 18.3363 21.1917 18.2989 20.9223 18.3402C20.6529 18.3815 20.4012 18.4997 20.1976 18.6806C19.8441 18.985 19.5635 19.3648 19.3766 19.7918C19.1896 20.2188 19.1009 20.6823 19.1171 21.1481C19.1182 21.4097 19.1514 21.6701 19.216 21.9236C19.38 22.5327 19.6321 23.1146 19.9645 23.6509C20.2043 24.0617 20.466 24.4594 20.7484 24.8424C21.6661 26.1001 22.8197 27.1679 24.1451 27.9867C24.8102 28.4027 25.5211 28.741 26.2636 28.9948C27.035 29.3439 27.8867 29.4779 28.7282 29.3826C29.2077 29.3101 29.662 29.1212 30.0511 28.8323C30.4402 28.5434 30.7522 28.1634 30.9597 27.7258C31.0816 27.4615 31.1186 27.166 31.0657 26.8798C30.9385 26.2947 30.1547 25.9492 29.6745 25.6672Z" fill="white"/>
</svg>
